<?xml version="1.0" standalone="no"?>
<!DOCTYPE svg PUBLIC "-//W3C//DTD SVG 20010904//EN"
 "http://www.w3.org/TR/2001/REC-SVG-20010904/DTD/svg10.dtd">
<svg version="1.0" xmlns="http://www.w3.org/2000/svg"
 width="2071.000000pt" height="2071.000000pt" viewBox="0 0 2071.000000 2071.000000"
 preserveAspectRatio="xMidYMid meet">
<metadata>
Created by potrace 1.11, written by Peter Selinger 2001-2013
</metadata>
<g transform="translate(0.000000,2071.000000) scale(0.100000,-0.100000)"
fill="#000000" stroke="none">
<path d="M8065 17452 c-1 -2 -43 -5 -91 -8 -119 -6 -222 -16 -324 -30 -25 -3
-58 -7 -75 -9 -16 -1 -30 -4 -30 -5 0 -2 -13 -4 -30 -5 -16 -2 -30 -4 -30 -5
0 -2 -22 -7 -69 -15 -21 -4 -48 -9 -60 -11 -11 -3 -32 -7 -46 -10 -14 -3 -32
-7 -40 -9 -8 -2 -15 -4 -15 -5 0 -1 -7 -3 -15 -5 -14 -4 -71 -19 -112 -30 -46
-13 -64 -17 -75 -17 -7 -1 -13 -5 -13 -10 0 -5 -6 -8 -12 -6 -7 1 -23 -3 -35
-10 -13 -7 -23 -10 -23 -7 0 3 -13 -1 -30 -10 -16 -9 -30 -13 -30 -10 0 3 -11
-2 -25 -11 -13 -8 -29 -13 -35 -9 -5 3 -10 1 -10 -6 0 -7 -3 -9 -6 -6 -4 3
-16 1 -28 -5 -11 -7 -24 -11 -28 -10 -5 1 -8 -3 -8 -9 0 -6 -7 -9 -15 -5 -8 3
-15 1 -15 -5 0 -6 -4 -7 -10 -4 -5 3 -10 1 -10 -5 0 -6 -4 -8 -10 -5 -5 3 -10
1 -10 -5 0 -7 -7 -10 -15 -6 -8 3 -15 1 -15 -5 0 -6 -4 -7 -10 -4 -5 3 -10 1
-10 -5 0 -6 -4 -8 -10 -5 -5 3 -10 2 -10 -3 0 -9 -32 -24 -58 -26 -7 -1 -16
-6 -20 -11 -9 -12 -104 -59 -114 -57 -5 1 -8 -2 -8 -8 0 -5 -9 -10 -21 -10
-11 0 -17 -4 -14 -10 3 -5 1 -10 -6 -10 -6 0 -33 -13 -59 -29 -27 -16 -51 -27
-56 -23 -4 4 -4 2 -1 -4 3 -6 -6 -17 -21 -25 -15 -7 -39 -21 -53 -31 -14 -10
-29 -15 -33 -13 -3 3 -4 2 -1 -1 2 -4 -17 -20 -43 -37 -26 -16 -47 -28 -47
-26 -1 2 -15 -10 -31 -27 -17 -18 -40 -35 -52 -38 -11 -4 -23 -13 -26 -21 -3
-8 -10 -15 -16 -15 -5 0 -18 -8 -28 -17 -10 -10 -31 -27 -46 -38 -16 -11 -38
-30 -49 -42 -11 -13 -25 -23 -30 -23 -5 0 -18 -11 -29 -25 -11 -14 -24 -25
-29 -25 -6 0 -20 -11 -33 -25 -13 -13 -27 -21 -31 -17 -5 4 -5 2 -2 -4 4 -7
-5 -20 -20 -29 -15 -10 -65 -57 -112 -104 -47 -47 -90 -84 -96 -83 -5 2 -7 0
-3 -4 4 -4 -8 -22 -27 -41 -19 -19 -35 -37 -35 -41 0 -13 -38 -41 -45 -34 -4
4 -5 3 -3 -3 4 -14 -27 -57 -35 -48 -4 3 -7 -1 -7 -11 0 -9 -7 -19 -15 -22 -8
-4 -15 -12 -15 -19 0 -8 -15 -26 -32 -40 -18 -15 -26 -24 -18 -20 8 3 2 -6
-15 -20 -16 -15 -23 -24 -15 -19 17 9 -17 -36 -37 -49 -7 -4 -13 -15 -13 -22
0 -8 -3 -15 -8 -15 -4 0 -13 -14 -20 -30 -8 -17 -18 -27 -24 -24 -6 4 -8 2 -5
-3 4 -6 -6 -23 -21 -39 -15 -15 -21 -24 -14 -20 11 7 11 4 1 -12 -7 -12 -15
-19 -17 -17 -2 2 -15 -17 -29 -43 -14 -26 -29 -50 -35 -53 -5 -3 -10 -9 -10
-12 0 -19 -12 -47 -20 -47 -5 0 -6 -5 -3 -10 3 -6 -1 -13 -9 -16 -9 -3 -13
-10 -10 -15 3 -5 0 -9 -6 -9 -6 0 -8 -4 -5 -10 3 -5 1 -10 -5 -10 -6 0 -9 -3
-6 -8 11 -19 -26 -41 -94 -56 -41 -9 -84 -16 -95 -16 -178 -5 -417 -17 -435
-24 -8 -3 -44 -8 -80 -10 -36 -3 -96 -10 -134 -16 -38 -6 -71 -8 -74 -6 -2 3
-13 1 -22 -4 -10 -5 -44 -12 -76 -14 -33 -2 -66 -7 -74 -10 -8 -3 -40 -8 -70
-12 -73 -8 -96 -12 -150 -23 -25 -5 -66 -12 -90 -16 -25 -3 -54 -8 -65 -10
-35 -8 -117 -25 -213 -47 -52 -11 -99 -21 -105 -22 -7 -1 -21 -5 -32 -9 -27
-8 -75 -18 -100 -20 -11 -1 -22 -5 -25 -8 -5 -6 -208 -64 -225 -64 -5 0 -12
-3 -15 -7 -3 -4 -17 -9 -30 -10 -14 -2 -28 -7 -31 -11 -3 -4 -17 -9 -30 -10
-13 0 -27 -5 -30 -10 -4 -5 -18 -10 -33 -10 -14 -1 -26 -5 -26 -8 0 -5 -30
-16 -90 -34 -3 -1 -14 -5 -25 -10 -11 -4 -58 -23 -105 -42 -47 -18 -102 -43
-122 -54 -21 -11 -42 -18 -47 -15 -5 4 -11 2 -13 -2 -4 -10 -188 -104 -188
-96 0 3 -7 -2 -16 -10 -8 -9 -21 -16 -29 -16 -7 0 -15 -4 -17 -9 -1 -5 -10
-11 -18 -13 -8 -2 -17 -5 -20 -9 -11 -12 -110 -59 -110 -52 0 5 -5 0 -11 -10
-6 -9 -14 -15 -20 -12 -5 4 -9 2 -9 -4 0 -10 -38 -27 -52 -23 -5 1 -8 -2 -8
-6 0 -9 -37 -29 -54 -30 -5 0 -12 -4 -15 -9 -6 -8 -27 -21 -92 -55 -21 -11
-42 -24 -45 -29 -3 -5 -10 -7 -15 -4 -5 4 -9 2 -9 -2 0 -5 -13 -17 -30 -26
-16 -10 -30 -15 -30 -11 0 4 -7 -1 -15 -12 -8 -10 -15 -15 -15 -11 0 4 -10 -1
-22 -12 -11 -11 -25 -18 -30 -15 -4 3 -8 1 -8 -4 0 -12 -50 -45 -67 -45 -7 0
-11 -3 -8 -5 8 -9 -78 -62 -88 -55 -6 3 -7 1 -3 -5 4 -7 3 -12 -2 -12 -5 0
-20 -10 -33 -21 -13 -12 -35 -29 -49 -37 -14 -9 -29 -22 -33 -29 -4 -7 -13
-13 -18 -13 -6 0 -22 -14 -36 -30 -14 -17 -28 -29 -30 -26 -2 2 -27 -20 -55
-50 -28 -29 -56 -50 -61 -47 -6 3 -7 1 -3 -5 3 -6 0 -17 -8 -24 -9 -10 -11
-20 -4 -31 5 -9 6 -17 2 -17 -5 0 8 -12 27 -26 19 -14 33 -30 31 -35 -1 -6 2
-8 7 -5 5 4 16 -2 23 -12 7 -11 18 -21 23 -23 11 -4 30 -19 84 -66 20 -18 40
-33 44 -33 5 0 5 -5 1 -12 -4 -6 -3 -8 3 -5 5 3 35 -18 66 -47 31 -29 57 -50
57 -48 0 3 11 -7 25 -22 13 -14 28 -26 32 -26 4 0 31 -21 59 -48 29 -26 55
-48 58 -49 19 -6 54 -41 48 -48 -4 -5 -2 -5 4 -2 5 3 23 -5 39 -19 15 -13 32
-24 37 -24 5 0 6 -6 2 -12 -4 -7 -4 -10 1 -6 7 7 68 -31 85 -52 3 -3 22 -17
43 -29 22 -13 49 -33 60 -45 12 -12 26 -22 30 -23 5 0 20 -10 33 -22 13 -12
28 -21 34 -21 5 0 16 -10 24 -22 9 -12 16 -18 16 -13 0 6 7 2 14 -8 8 -10 16
-17 18 -15 9 6 76 -47 71 -56 -3 -5 -2 -6 4 -3 13 8 95 -47 86 -58 -5 -4 -3
-5 4 -2 10 6 67 -32 85 -58 5 -6 8 -7 8 0 0 7 3 7 8 0 4 -6 24 -19 45 -30 20
-11 37 -23 37 -27 0 -5 7 -8 16 -8 9 0 12 -5 8 -12 -4 -6 -3 -8 4 -4 6 3 16 1
24 -6 7 -7 25 -19 41 -27 15 -8 27 -18 27 -23 0 -5 4 -7 9 -4 5 3 20 -4 33
-17 14 -12 32 -23 39 -25 8 -2 16 -8 17 -13 2 -5 10 -9 18 -9 8 0 14 -5 14
-11 0 -5 4 -8 8 -5 5 3 20 -5 33 -17 13 -12 25 -21 26 -19 8 7 23 0 18 -8 -4
-6 -3 -9 2 -8 15 5 162 -76 156 -86 -4 -5 -1 -6 6 -2 7 5 28 -2 49 -16 20 -13
61 -34 90 -47 28 -14 52 -28 52 -33 0 -5 4 -7 9 -4 14 9 42 -5 34 -17 -3 -5
-1 -7 5 -3 12 7 82 -23 82 -36 0 -5 4 -7 9 -4 5 3 22 -1 37 -9 16 -8 35 -15
42 -15 6 0 12 -4 12 -8 0 -5 6 -9 13 -9 6 0 30 -8 52 -17 22 -9 40 -16 40 -16
0 1 25 -8 55 -20 84 -34 94 -37 105 -40 6 -1 26 -8 45 -15 19 -8 69 -23 110
-35 41 -12 86 -26 100 -30 14 -5 68 -19 120 -30 52 -12 102 -24 110 -27 8 -3
31 -7 50 -10 19 -2 42 -6 50 -9 8 -4 26 -8 40 -9 14 -2 39 -5 55 -8 17 -2 59
-7 95 -11 36 -4 71 -9 79 -12 7 -2 61 -7 120 -10 58 -3 162 -9 230 -12 l124
-7 12 -43 c7 -23 14 -45 14 -47 1 -3 8 -19 16 -37 7 -18 11 -36 9 -40 -3 -5 0
-8 5 -8 6 0 11 -9 11 -20 0 -11 5 -20 11 -20 6 0 8 -7 5 -16 -4 -10 -2 -13 6
-8 7 5 9 2 5 -9 -3 -9 -2 -17 3 -19 5 -2 10 -10 12 -18 2 -8 9 -21 16 -28 7
-8 10 -18 7 -23 -4 -5 -3 -9 2 -9 9 0 39 -61 35 -72 -1 -5 2 -8 6 -8 10 0 37
-50 34 -62 -1 -5 2 -8 7 -8 5 0 12 -11 15 -25 4 -14 11 -25 17 -25 6 0 7 -4 4
-10 -3 -5 -1 -10 6 -10 7 0 10 -3 6 -6 -3 -3 3 -15 13 -27 11 -11 17 -24 14
-29 -3 -4 0 -8 6 -8 6 0 8 -5 5 -10 -3 -6 1 -13 9 -16 9 -3 13 -10 10 -15 -3
-5 0 -9 7 -9 7 0 10 -3 6 -6 -3 -3 3 -15 13 -27 11 -11 17 -25 13 -30 -3 -6
-2 -8 3 -5 5 3 19 -10 31 -29 13 -19 17 -31 10 -27 -6 4 0 -4 16 -19 15 -14
27 -31 27 -37 0 -6 9 -20 20 -32 11 -12 20 -28 20 -35 0 -8 4 -11 10 -8 5 3
12 -6 16 -20 3 -13 10 -23 14 -20 7 4 19 -16 22 -35 0 -3 9 -11 20 -18 10 -7
16 -18 12 -23 -3 -5 -2 -8 3 -7 4 2 10 -2 12 -7 2 -6 14 -19 27 -30 13 -11 24
-24 24 -29 0 -5 15 -22 33 -38 17 -17 25 -26 17 -22 -8 4 10 -17 40 -48 30
-30 85 -86 122 -124 74 -76 161 -155 196 -180 12 -8 19 -21 16 -27 -4 -7 -4
-9 0 -5 9 7 20 0 72 -49 19 -18 34 -30 34 -26 0 3 14 -8 30 -25 17 -18 30 -29
30 -26 0 3 6 -1 14 -8 8 -7 26 -22 42 -33 15 -11 33 -26 40 -32 7 -7 15 -13
19 -13 4 0 12 -6 19 -13 8 -6 24 -19 36 -27 12 -8 28 -21 36 -27 7 -7 17 -13
23 -13 6 0 11 -5 11 -11 0 -5 5 -7 10 -4 6 3 13 -1 16 -9 3 -9 9 -14 13 -11 4
2 18 -6 32 -19 23 -22 31 -26 47 -26 4 0 20 -11 35 -25 15 -14 27 -23 27 -19
0 3 15 -5 34 -19 18 -15 36 -23 40 -20 3 4 6 1 6 -6 0 -7 5 -9 10 -6 6 3 10 1
10 -5 0 -6 5 -8 10 -5 6 3 13 -1 16 -9 3 -9 10 -13 15 -10 5 3 9 0 9 -6 0 -6
4 -9 9 -5 5 3 16 -1 24 -9 8 -8 17 -12 21 -9 3 4 6 1 6 -6 0 -7 4 -9 10 -6 5
3 10 1 10 -5 0 -6 5 -8 10 -5 6 3 10 1 10 -5 0 -6 4 -8 10 -5 6 3 10 1 10 -5
0 -6 5 -8 10 -5 6 3 10 1 10 -5 0 -6 4 -9 9 -5 5 3 16 -1 24 -9 8 -8 17 -12
21 -9 3 4 6 2 6 -3 0 -5 10 -10 22 -11 11 -1 25 -8 29 -15 5 -7 9 -10 9 -5 0
4 11 0 25 -9 14 -9 25 -13 25 -10 0 4 10 1 23 -6 12 -7 24 -13 27 -13 3 -1 18
-7 33 -13 16 -7 35 -12 43 -12 8 0 14 -5 14 -11 0 -5 5 -7 10 -4 6 3 10 1 10
-5 0 -6 4 -8 10 -5 5 3 23 -1 40 -10 16 -8 30 -13 30 -9 0 4 7 1 15 -6 8 -7
15 -9 15 -5 0 4 7 2 15 -5 8 -7 15 -10 15 -6 0 3 15 0 34 -8 19 -8 36 -12 39
-10 2 2 20 -3 40 -11 20 -8 39 -15 42 -14 9 1 70 -13 80 -19 5 -3 25 -7 44 -9
20 -2 38 -7 41 -11 3 -4 19 -8 35 -10 17 -1 37 -6 45 -9 18 -8 27 -10 41 -12
12 -1 6 -49 -11 -81 -7 -13 -14 -37 -17 -54 -3 -17 -9 -33 -14 -34 -5 -2 -7
-8 -3 -13 3 -5 2 -15 -3 -21 -8 -13 -13 -33 -15 -55 -1 -7 -5 -13 -10 -13 -5
0 -6 -5 -3 -10 3 -5 3 -16 -1 -22 -5 -7 -9 -19 -10 -28 -3 -16 -11 -51 -14
-60 -1 -3 -3 -9 -5 -15 -1 -5 -3 -12 -4 -15 -2 -3 -4 -14 -6 -25 -1 -11 -6
-33 -9 -50 -4 -16 -9 -39 -10 -50 -2 -11 -4 -20 -6 -20 -1 0 -3 -9 -5 -20 -1
-11 -6 -38 -10 -60 -3 -22 -8 -53 -10 -70 -2 -16 -6 -43 -9 -60 -4 -16 -9 -52
-12 -80 -3 -27 -7 -68 -9 -90 -23 -205 -23 -684 0 -855 2 -19 7 -57 10 -85 4
-27 8 -63 11 -80 14 -84 21 -123 29 -160 6 -28 15 -77 19 -100 1 -5 5 -16 9
-22 5 -7 6 -17 2 -22 -3 -5 -1 -12 5 -16 6 -4 8 -11 4 -16 -3 -5 -1 -15 4 -22
5 -7 12 -23 15 -37 3 -14 8 -36 12 -50 3 -14 7 -29 8 -35 2 -5 6 -16 10 -22 5
-7 5 -17 2 -23 -3 -5 -1 -10 6 -10 7 0 9 -3 6 -7 -4 -3 -3 -11 2 -17 6 -7 12
-23 15 -36 7 -36 27 -93 39 -107 5 -7 6 -13 2 -13 -4 0 -2 -7 5 -15 7 -8 9
-15 6 -15 -4 0 -1 -10 6 -22 7 -13 13 -25 13 -28 1 -3 11 -25 23 -50 11 -24
18 -48 16 -52 -3 -4 0 -8 6 -8 6 0 8 -4 5 -10 -3 -5 -2 -10 2 -10 9 0 39 -69
35 -82 -1 -5 2 -8 7 -8 8 0 24 -37 22 -52 -1 -5 3 -8 8 -8 10 0 27 -39 23 -52
-1 -5 3 -8 9 -8 5 0 7 -4 4 -10 -3 -5 -2 -10 3 -10 9 0 47 -70 44 -82 -1 -5 3
-8 10 -8 6 0 8 -3 5 -7 -4 -3 1 -12 11 -20 11 -10 12 -12 2 -8 -12 5 -12 4 1
-7 14 -12 43 -56 44 -68 0 -3 12 -21 26 -40 15 -19 30 -45 34 -57 3 -13 11
-23 16 -23 5 0 9 -9 9 -20 0 -10 9 -24 21 -30 11 -7 18 -14 16 -17 -3 -2 4
-15 15 -28 11 -13 19 -26 18 -30 -1 -4 7 -13 17 -22 10 -8 11 -11 3 -7 -8 4
-4 -4 10 -18 14 -15 30 -32 35 -40 6 -8 19 -25 30 -38 12 -14 14 -20 5 -15 -8
5 -1 -5 15 -22 41 -42 55 -60 55 -73 0 -5 5 -10 10 -10 6 0 10 -7 10 -16 0 -8
5 -12 10 -9 6 3 10 2 10 -3 0 -6 13 -24 30 -42 16 -18 27 -37 23 -43 -3 -6 -1
-7 5 -3 7 4 12 3 12 -2 0 -5 17 -26 38 -47 20 -21 30 -34 22 -30 -8 5 13 -18
47 -52 34 -33 59 -64 55 -67 -4 -4 0 -6 8 -4 8 2 14 -3 12 -10 -1 -8 1 -11 6
-8 5 3 20 -7 34 -22 14 -15 44 -43 67 -62 23 -19 53 -45 66 -57 13 -13 28 -23
34 -23 5 0 19 -12 30 -26 12 -15 21 -24 21 -20 0 7 15 -4 51 -36 10 -10 19
-16 19 -13 0 6 33 -21 63 -50 11 -12 17 -14 13 -5 -4 8 0 6 8 -4 9 -11 16 -16
16 -10 0 5 10 -2 21 -16 11 -14 17 -18 13 -10 -7 13 -6 13 12 0 10 -8 27 -23
37 -35 10 -11 15 -13 11 -5 -6 13 27 -9 46 -31 3 -3 22 -13 43 -22 20 -10 37
-22 37 -28 0 -6 4 -8 8 -5 5 3 18 -3 29 -14 12 -10 23 -16 27 -13 3 3 8 -2 12
-11 3 -9 10 -13 15 -10 5 3 9 0 9 -6 0 -6 5 -8 10 -5 6 3 13 -1 16 -9 3 -9 10
-13 15 -10 5 3 9 0 9 -6 0 -6 5 -8 10 -5 6 3 13 -1 16 -9 3 -9 10 -14 14 -11
5 3 15 -1 23 -9 8 -8 17 -12 21 -9 3 4 6 1 6 -6 0 -7 4 -10 9 -6 5 3 15 0 23
-7 7 -7 20 -14 28 -16 8 -2 17 -8 18 -13 2 -5 8 -7 13 -3 5 3 9 0 9 -7 0 -7 3
-9 7 -6 3 4 12 -1 20 -11 8 -9 12 -12 9 -5 -3 6 13 2 36 -10 24 -12 45 -22 48
-22 3 -1 19 -8 35 -15 17 -7 32 -14 35 -15 31 -8 80 -31 80 -38 0 -4 4 -5 10
-2 5 3 23 -1 40 -10 16 -8 30 -13 30 -10 0 3 13 -1 30 -10 16 -8 32 -15 35
-15 3 0 7 -1 10 -1 3 -1 10 -3 15 -4 6 -1 12 -4 15 -5 3 -1 10 -4 15 -5 6 -1
13 -4 18 -5 4 -1 12 -3 17 -4 32 -6 72 -18 88 -27 10 -5 22 -7 27 -4 5 3 11 1
15 -5 4 -6 11 -8 16 -5 5 4 15 3 22 -2 12 -8 24 -11 67 -17 14 -2 25 -5 25 -6
0 -1 11 -3 25 -5 14 -2 39 -6 55 -10 17 -3 41 -8 55 -10 14 -2 41 -7 60 -10
19 -4 49 -8 65 -9 17 -2 30 -4 30 -5 0 -2 16 -4 35 -6 19 -2 60 -5 90 -8 153
-16 234 -19 445 -19 127 1 262 3 300 7 132 11 170 15 210 20 22 3 56 7 75 10
19 2 49 7 65 10 17 2 50 7 75 11 59 8 84 12 88 14 1 2 10 3 20 5 9 1 24 5 33
9 9 4 20 6 25 5 5 -1 11 0 14 1 9 3 44 10 70 13 14 2 32 7 39 11 7 4 15 5 18
2 3 -3 12 -1 19 5 8 6 21 9 29 5 8 -3 15 -1 15 5 0 6 9 8 19 4 11 -3 22 -1 26
5 13 22 43 8 90 -42 27 -29 45 -46 40 -38 -8 13 -6 13 8 1 9 -7 14 -17 11 -22
-3 -5 0 -8 8 -7 7 2 12 -3 11 -9 -2 -7 0 -12 5 -10 4 1 35 -25 68 -58 33 -33
81 -77 107 -98 26 -21 44 -43 41 -49 -4 -6 -2 -8 3 -5 12 8 36 -17 26 -26 -3
-4 0 -7 8 -7 7 0 31 -19 53 -42 22 -24 36 -36 31 -28 -4 8 4 4 17 -10 14 -14
23 -28 21 -33 -2 -4 0 -6 5 -5 5 2 24 -12 41 -29 17 -18 31 -30 31 -28 0 3 6
0 14 -7 8 -7 11 -17 8 -22 -3 -5 0 -6 5 -3 12 8 36 -17 26 -26 -3 -4 -1 -7 6
-7 20 0 72 -41 65 -51 -3 -5 -2 -8 3 -7 9 3 39 -20 90 -69 18 -18 37 -34 41
-35 4 -2 6 -6 5 -10 -2 -5 0 -7 5 -6 8 3 39 -21 84 -64 15 -14 28 -23 28 -20
0 4 16 -10 35 -31 19 -21 35 -34 35 -30 0 4 11 -4 24 -19 13 -16 27 -28 32
-28 5 0 24 -16 42 -35 17 -20 32 -33 32 -30 0 4 6 0 14 -7 8 -7 33 -26 55 -42
23 -17 41 -33 41 -38 0 -4 7 -8 15 -8 9 0 18 -7 21 -15 4 -8 12 -15 20 -15 7
0 20 -10 28 -22 9 -12 16 -18 16 -13 0 6 7 1 16 -10 8 -11 17 -18 19 -15 2 3
14 -4 27 -15 14 -11 31 -21 39 -23 7 -2 16 -7 19 -10 3 -4 37 -23 75 -42 39
-19 86 -44 105 -55 19 -11 39 -20 45 -21 26 -3 55 -17 55 -27 0 -6 3 -8 6 -4
3 3 25 -1 47 -10 23 -8 49 -16 57 -18 8 -2 15 -4 15 -5 0 -1 7 -3 15 -5 8 -2
26 -7 40 -10 55 -13 99 -17 185 -17 99 0 134 6 175 27 15 8 30 11 34 8 3 -4 6
-1 6 6 0 7 4 10 9 7 5 -3 12 1 15 10 3 8 9 14 13 11 10 -4 53 40 46 47 -3 2 5
10 17 16 12 6 19 17 17 23 -2 7 2 25 10 41 27 52 33 165 12 201 -4 6 -5 18 -4
28 2 9 -1 17 -5 17 -7 0 -8 26 -1 61 2 14 81 -8 81 -23 0 -5 4 -7 9 -4 10 7
61 -16 61 -27 0 -5 4 -6 8 -3 5 3 21 -2 36 -10 16 -7 35 -14 42 -14 8 0 14 -5
14 -11 0 -5 4 -8 9 -4 5 3 12 1 16 -5 4 -6 11 -8 16 -5 5 4 9 1 9 -5 0 -6 4
-9 8 -6 5 3 20 -1 35 -9 15 -8 27 -11 27 -8 0 3 6 0 13 -6 8 -6 17 -8 20 -4 4
3 7 2 7 -3 0 -5 12 -11 27 -12 15 -1 30 -8 35 -15 4 -6 8 -9 8 -5 0 4 15 2 33
-3 31 -10 41 -13 87 -24 11 -3 29 -7 40 -10 95 -24 124 -29 220 -41 75 -9 325
-4 325 6 0 1 16 6 48 13 6 1 18 6 25 10 6 5 12 5 12 2 0 -4 7 1 16 9 8 9 19
14 24 11 4 -3 11 2 14 11 4 9 9 14 12 11 3 -3 16 5 29 18 12 14 25 21 29 17 4
-4 6 -2 4 5 -2 6 6 19 17 28 11 9 14 13 7 10 -8 -4 -3 10 11 31 13 22 25 42
26 47 0 4 1 8 2 10 19 69 14 165 -13 262 -6 22 -11 43 -10 48 1 4 -3 7 -8 7
-5 0 -9 3 -9 8 1 4 -4 23 -12 42 -7 19 -12 38 -11 43 1 4 -3 7 -9 7 -5 0 -8 4
-5 9 4 5 2 11 -3 13 -5 1 -11 10 -13 18 -2 8 -9 21 -16 28 -7 8 -10 18 -7 23
4 5 2 9 -3 9 -9 0 -25 37 -23 53 1 4 -3 7 -7 7 -9 0 -30 40 -28 53 0 5 -7 13
-17 18 -9 6 -15 14 -12 20 4 5 1 9 -6 9 -7 0 -10 3 -6 6 3 3 -3 15 -13 27 -11
11 -17 25 -13 30 3 6 2 7 -4 4 -5 -3 -17 10 -28 29 -10 19 -23 34 -28 34 -6 0
-8 3 -4 6 3 3 -5 16 -19 29 -13 12 -24 25 -24 29 0 4 -12 19 -27 35 -72 74
-117 127 -115 133 1 5 -3 7 -9 5 -6 -1 -16 7 -22 18 -7 11 -24 31 -39 46 -15
14 -24 30 -20 34 4 3 0 5 -8 3 -8 -2 -14 3 -13 9 2 7 -3 12 -10 10 -6 -1 -11
4 -9 11 1 8 -2 11 -8 7 -5 -3 -13 2 -17 12 -4 10 -18 29 -32 43 -30 29 -41 66
-17 57 8 -3 16 -2 18 3 2 4 14 10 28 12 14 1 31 9 38 16 8 7 18 10 23 7 5 -4
9 -1 9 5 0 6 5 8 10 5 6 -3 10 -1 10 6 0 7 3 10 6 7 3 -3 23 11 44 32 21 21
40 36 43 34 2 -2 10 12 17 31 8 19 17 35 22 35 4 0 7 3 7 8 -1 4 0 9 1 12 2 5
10 65 12 85 1 11 -9 67 -18 105 -3 14 -6 31 -6 38 -1 6 -5 12 -10 12 -4 0 -8
9 -8 20 0 12 -9 30 -20 42 -11 12 -20 28 -20 35 0 7 -5 13 -12 13 -6 0 -9 3
-5 6 3 4 -4 15 -16 26 -12 11 -15 16 -7 13 8 -4 -3 9 -25 30 -22 20 -33 33
-25 29 8 -5 -3 10 -25 33 -106 108 -163 172 -157 178 4 4 0 5 -8 3 -8 -2 -14
3 -12 10 1 8 -1 11 -6 8 -5 -3 -30 14 -55 38 -26 24 -47 40 -47 37 -1 -3 -9 4
-19 16 -10 12 -21 19 -25 16 -3 -4 -6 -1 -6 5 0 7 -7 12 -16 12 -9 0 -12 5 -8
12 4 6 3 8 -3 5 -6 -4 -21 2 -33 13 -13 11 -29 20 -37 20 -7 0 -13 5 -13 12 0
6 -3 8 -6 5 -4 -4 -19 2 -33 12 -14 10 -55 33 -91 52 -36 19 -67 37 -68 41 -2
5 -8 6 -13 2 -5 -3 -9 0 -9 6 0 6 -4 9 -9 5 -5 -3 -16 2 -24 10 -9 8 -20 15
-26 15 -6 0 -11 5 -11 11 0 5 -4 7 -10 4 -5 -3 -10 -1 -10 5 0 6 -4 8 -10 5
-5 -3 -10 -1 -10 5 0 6 -5 8 -10 5 -6 -3 -13 1 -16 9 -3 9 -10 13 -15 10 -5
-3 -9 0 -9 5 0 6 -3 10 -7 10 -21 -3 -33 2 -27 13 5 7 3 8 -5 4 -7 -5 -21 0
-32 10 -11 10 -27 19 -35 20 -9 1 -21 10 -28 20 -7 9 -18 14 -24 10 -6 -3 -14
0 -19 8 -4 8 -12 15 -16 15 -13 0 -67 25 -67 32 0 3 -15 11 -34 19 -25 9 -33
19 -33 36 0 13 3 24 8 24 5 0 8 3 8 8 -1 4 0 10 1 15 1 4 3 10 4 15 7 29 32
82 39 82 4 0 6 4 2 9 -3 5 0 15 7 23 7 7 14 20 16 28 2 8 8 17 13 18 5 2 7 8
3 13 -3 5 0 9 6 9 6 0 9 4 5 9 -3 5 2 16 10 25 9 8 16 18 16 20 2 23 13 46 21
46 5 0 7 4 3 9 -6 11 15 61 27 61 4 0 7 3 7 8 -4 22 2 42 11 37 6 -3 7 1 4 9
-3 9 -1 16 6 16 6 0 9 4 6 9 -3 5 1 14 9 21 8 7 13 16 10 20 -3 4 8 39 24 78
16 39 27 73 23 76 -3 3 0 6 6 6 6 0 9 7 6 15 -4 8 -1 15 5 15 6 0 8 7 5 15 -4
8 -1 15 6 15 7 0 10 6 7 13 -2 6 0 23 6 37 5 14 12 34 14 45 2 11 8 24 13 29
4 4 6 14 4 21 -3 7 -1 16 5 19 6 4 8 13 5 20 -3 8 0 17 5 21 6 3 9 11 6 16 -4
5 -3 15 2 22 4 6 8 17 9 22 1 6 5 26 9 45 4 19 8 41 8 48 0 6 3 12 7 12 3 0 7
11 8 25 1 14 2 36 3 50 1 14 5 25 8 25 4 0 7 12 8 28 1 15 4 43 7 62 3 19 7
53 10 75 3 22 8 63 11 90 10 77 17 185 16 234 -1 35 2 42 14 37 8 -3 15 -2 15
3 0 4 6 8 13 9 6 0 23 3 37 7 14 3 45 8 70 11 66 7 111 13 145 19 17 3 46 7
65 9 19 2 42 7 51 10 9 4 20 6 25 5 5 -1 11 0 14 1 3 1 16 3 30 5 33 5 77 14
119 25 19 5 37 7 39 5 3 -2 12 0 22 5 9 5 28 11 41 14 23 5 39 8 92 22 12 3
29 7 37 9 8 2 16 4 18 5 1 2 5 3 10 4 4 1 13 5 20 10 7 4 16 5 19 2 3 -3 12
-1 20 5 7 6 13 8 13 5 0 -4 9 -2 21 4 20 11 53 21 77 22 6 1 12 5 12 9 0 4 15
11 33 14 17 4 37 12 44 17 7 5 17 7 23 3 5 -3 10 -2 10 3 0 8 22 18 60 27 3 0
15 6 26 13 12 6 24 8 28 5 3 -3 6 -1 6 6 0 7 5 9 10 6 6 -3 10 -1 10 5 0 6 4
9 9 5 5 -3 12 -1 16 5 4 6 11 8 16 5 5 -4 9 -1 9 5 0 6 5 8 10 5 6 -3 10 -3
10 2 0 12 51 33 63 26 6 -3 7 -1 3 5 -6 11 0 14 20 11 4 0 10 3 13 8 7 10 79
45 84 41 1 -2 13 7 26 19 13 12 27 20 31 18 5 -3 11 2 14 11 4 9 9 14 12 11 4
-3 13 1 21 9 8 8 18 12 23 9 4 -3 11 2 14 11 3 8 10 12 16 9 5 -3 10 -1 10 5
0 6 4 9 9 6 5 -4 11 -3 13 1 4 10 65 53 74 53 4 0 23 12 42 27 20 15 32 20 28
12 -4 -8 0 -5 8 5 9 11 16 16 16 10 0 -5 5 -1 11 9 6 9 14 15 20 12 5 -4 9 -1
9 4 0 6 7 11 15 11 8 0 15 5 15 12 0 6 3 9 6 6 3 -4 14 2 25 13 11 11 25 17
31 13 6 -4 8 -3 4 4 -3 6 3 14 16 18 12 3 26 10 32 15 6 5 43 30 81 56 39 26
75 52 82 57 34 30 43 36 53 36 5 0 10 5 10 10 0 6 4 9 9 8 4 -2 18 8 30 22 13
14 19 18 15 10 -5 -8 9 2 29 23 21 21 42 35 47 32 5 -3 12 0 16 6 5 8 2 10 -7
5 -8 -4 -3 1 11 12 13 11 29 18 34 15 5 -3 6 -1 3 4 -4 6 1 17 10 24 14 12 16
12 8 -1 -5 -8 14 8 42 35 92 92 141 135 153 135 6 0 8 5 5 10 -3 6 -2 10 4 10
5 0 49 39 97 88 48 48 92 85 98 84 6 -2 8 0 4 3 -4 4 10 24 30 43 20 20 37 40
37 44 0 5 32 38 70 75 39 37 63 63 55 58 -9 -5 -8 0 4 13 21 24 32 29 20 10
-4 -7 -3 -8 5 -4 6 4 9 11 6 16 -3 5 5 17 18 27 13 10 25 23 28 28 2 6 7 9 12
7 4 -1 6 2 5 7 -2 5 11 21 27 36 17 15 23 24 15 20 -8 -4 -4 4 10 18 14 15 34
39 45 53 11 15 36 44 55 63 19 19 28 31 20 27 -8 -5 -2 3 14 18 16 14 25 26
21 26 -5 0 0 8 11 19 25 25 49 54 53 66 6 18 31 50 31 40 0 -5 9 8 21 30 11
22 27 45 35 51 8 6 14 16 14 23 0 6 5 11 10 11 6 0 10 7 10 15 0 8 9 19 20 25
11 6 18 14 16 19 -3 4 6 19 19 33 13 14 21 29 18 32 -4 3 -1 6 5 6 7 0 12 6
12 14 0 8 7 17 16 20 8 3 13 10 10 15 -3 5 1 14 9 21 8 7 15 19 15 27 0 7 7
16 15 19 8 4 12 10 9 15 -3 5 2 12 10 15 9 3 13 10 10 15 -3 5 2 12 10 15 9 3
13 10 10 15 -3 5 0 9 6 9 6 0 8 5 5 10 -3 6 0 13 8 16 9 3 18 17 21 30 4 14
11 22 17 19 5 -4 9 -3 8 2 -2 15 13 53 22 53 5 0 9 7 9 15 0 8 5 15 11 15 5 0
7 5 4 10 -3 6 -1 10 4 10 6 0 11 7 11 15 0 8 5 15 11 15 5 0 8 4 5 8 -4 6 28
62 61 107 5 6 9 17 11 25 2 8 8 17 13 18 5 2 9 10 9 18 0 8 5 14 11 14 5 0 7
5 4 10 -3 6 -1 10 5 10 6 0 9 4 5 9 -3 6 1 13 9 18 8 4 15 11 16 15 5 25 26
68 32 68 4 0 8 6 8 14 0 7 7 19 15 26 8 7 12 16 9 21 -3 5 0 9 6 9 6 0 8 5 5
10 -3 6 -1 10 5 10 6 0 8 5 5 10 -3 6 -1 10 5 10 6 0 8 5 5 10 -3 6 -1 10 5
10 6 0 8 5 5 10 -3 6 -1 10 4 10 6 0 11 7 11 15 0 8 5 15 11 15 5 0 7 5 4 10
-3 6 -1 10 4 10 6 0 10 4 9 8 -3 10 33 84 45 93 5 3 8 9 8 13 -1 9 43 100 52
107 5 3 9 9 9 12 0 19 12 47 20 47 5 0 7 4 3 9 -3 5 1 16 9 24 8 8 12 17 9 21
-4 3 -1 6 6 6 7 0 10 4 6 9 -3 5 -1 12 5 16 6 4 8 11 5 16 -4 5 -1 9 4 9 6 0
10 3 10 8 -3 19 2 33 11 27 5 -3 7 0 4 8 -3 8 2 21 10 30 8 8 12 17 9 21 -4 3
-1 6 5 6 7 0 11 3 11 8 -1 4 0 10 1 15 4 12 7 26 9 38 0 5 6 7 13 3 6 -4 8 -3
5 3 -3 5 3 26 13 46 11 21 17 37 14 37 -4 0 0 7 7 16 7 9 14 23 15 32 2 8 9
19 16 23 7 5 10 9 6 9 -11 0 13 60 24 60 5 0 7 4 3 9 -3 5 -1 12 5 16 6 4 8
11 5 16 -4 5 -2 9 3 9 5 0 9 6 10 13 2 28 29 87 37 80 4 -5 5 0 2 10 -4 9 -3
17 1 17 4 0 8 10 9 22 1 11 8 25 15 29 7 5 9 9 4 9 -5 0 -3 6 3 13 6 8 8 17 4
20 -3 4 0 7 7 7 7 0 10 3 7 6 -3 4 -1 16 5 28 7 11 13 23 13 26 9 38 19 60 27
60 5 0 6 4 3 10 -3 5 2 21 11 35 9 14 13 25 10 25 -4 0 2 12 11 27 10 15 17
28 15 30 -5 6 10 53 17 53 3 0 7 12 8 27 0 15 6 29 12 31 6 2 9 8 5 13 -3 5 0
9 6 9 6 0 8 5 5 10 -4 6 -1 17 5 25 7 8 10 15 6 15 -4 0 1 11 10 25 9 14 13
25 9 25 -4 0 -2 7 5 15 7 8 9 15 5 15 -4 0 -2 6 4 13 6 8 8 17 4 20 -3 4 -1 7
5 7 7 0 11 3 10 8 -2 12 14 66 25 80 5 6 6 12 3 12 -4 0 -1 10 6 23 14 25 13
21 23 65 4 18 12 35 16 38 5 3 7 10 4 15 -4 5 -1 9 5 9 6 0 8 5 5 10 -4 6 -1
17 5 25 7 8 10 15 6 15 -4 0 0 13 9 30 8 16 15 32 15 35 0 3 1 7 1 10 1 3 3
10 4 15 1 6 4 12 5 15 4 8 7 17 15 53 4 17 10 32 14 32 4 0 8 12 9 26 1 15 6
32 12 39 5 6 7 15 3 18 -3 4 -1 7 6 7 7 0 10 4 6 9 -3 5 -1 12 4 16 6 3 8 12
4 20 -3 8 0 15 7 15 6 0 8 5 5 10 -3 6 -3 16 2 23 4 6 9 17 10 22 14 58 29
101 37 106 5 4 5 12 2 18 -4 6 -2 11 4 11 6 0 8 5 5 10 -3 6 -3 16 2 23 4 6 8
15 9 20 1 4 3 9 4 12 1 3 4 10 5 15 1 6 3 11 5 13 1 1 4 15 6 32 3 16 10 35
16 42 6 7 8 13 4 13 -3 0 -1 12 5 28 6 15 13 38 16 52 2 13 8 29 14 36 5 6 6
13 3 16 -3 4 2 20 11 37 8 17 13 31 9 31 -4 0 -1 6 5 13 6 8 8 17 5 20 -3 3
-2 12 2 19 5 7 9 18 11 23 7 36 12 53 21 75 5 14 10 28 11 33 0 4 1 8 2 10 0
1 3 11 5 22 3 11 6 25 7 30 1 6 6 16 11 23 4 7 6 16 3 18 -3 3 1 21 9 40 8 19
14 36 14 39 0 3 0 6 1 8 0 1 2 11 4 21 2 11 7 31 11 45 4 14 7 29 6 34 -1 4 2
7 7 7 6 0 8 9 6 20 -2 11 0 20 5 20 5 0 7 6 4 14 -3 8 0 17 5 21 6 3 9 11 6
16 -4 5 -3 15 2 22 4 6 8 18 10 26 1 8 5 26 9 40 4 14 6 31 5 38 -1 6 3 14 8
18 6 3 8 12 4 20 -3 8 0 15 6 15 6 0 8 7 5 15 -4 8 -2 21 3 28 12 15 9 64 -5
98 -18 44 -114 57 -189 27 -24 -10 -43 -15 -43 -11 0 3 -8 -1 -18 -9 -16 -15
-85 -48 -99 -47 -3 1 -9 -3 -12 -8 -8 -11 -63 -37 -73 -35 -5 1 -8 -2 -8 -8 0
-5 -7 -10 -15 -10 -8 0 -15 -5 -15 -11 0 -6 -7 -8 -16 -5 -10 4 -13 2 -8 -6 5
-8 2 -9 -10 -5 -9 4 -15 3 -12 -2 5 -7 -28 -23 -37 -18 -2 1 -11 -6 -21 -16
-10 -9 -22 -15 -27 -12 -5 4 -9 2 -9 -2 0 -5 -9 -14 -21 -21 -17 -11 -20 -11
-14 0 3 7 0 5 -9 -6 -8 -10 -20 -15 -27 -10 -7 4 -10 3 -6 -3 5 -8 -45 -37
-78 -45 -5 -1 -19 -10 -29 -20 -10 -9 -23 -15 -28 -12 -4 3 -8 0 -8 -7 0 -7
-3 -10 -6 -6 -4 3 -13 -1 -21 -9 -8 -8 -19 -12 -24 -9 -5 4 -9 2 -9 -3 0 -10
-63 -44 -76 -42 -4 1 -10 -3 -13 -8 -3 -6 -13 -12 -21 -14 -8 -2 -21 -9 -28
-16 -8 -7 -18 -10 -23 -7 -5 4 -9 2 -9 -3 0 -10 -58 -36 -72 -33 -5 0 -8 -4
-8 -10 0 -5 -4 -7 -10 -4 -5 3 -10 2 -10 -3 0 -8 -35 -23 -43 -19 -2 1 -11 -6
-21 -15 -10 -10 -26 -18 -37 -18 -10 0 -19 -4 -19 -9 0 -5 -7 -12 -16 -15 -10
-4 -13 -2 -8 7 6 8 3 8 -9 -1 -28 -23 -89 -52 -98 -46 -5 3 -9 1 -9 -3 0 -7
-41 -29 -70 -37 -3 -1 -15 -7 -27 -14 -13 -7 -23 -10 -23 -6 0 3 -7 1 -15 -6
-8 -7 -15 -9 -15 -4 0 5 -4 4 -8 -3 -4 -6 -16 -13 -27 -15 -11 -1 -23 -6 -26
-11 -3 -4 -15 -9 -26 -11 -12 -3 -34 -11 -51 -20 -16 -8 -32 -12 -36 -9 -3 4
-6 1 -6 -6 0 -7 -6 -11 -12 -9 -7 3 -19 -2 -27 -9 -7 -8 -20 -12 -27 -9 -8 3
-14 1 -14 -4 0 -6 -3 -9 -7 -8 -5 1 -18 -3 -29 -10 -12 -6 -24 -8 -28 -5 -3 3
-6 1 -6 -6 0 -8 -7 -11 -15 -7 -8 3 -15 1 -15 -5 0 -6 -4 -7 -10 -4 -5 3 -10
1 -10 -6 0 -7 -3 -10 -6 -7 -3 4 -17 0 -31 -7 -15 -8 -30 -12 -35 -9 -4 3 -8
1 -8 -5 0 -6 -7 -8 -15 -5 -8 4 -15 1 -15 -5 0 -6 -8 -11 -18 -11 -10 0 -22
-3 -26 -7 -4 -5 -11 -8 -14 -8 -4 -1 -17 -6 -30 -13 -12 -7 -27 -10 -32 -7 -6
3 -10 1 -10 -6 0 -7 -3 -10 -6 -7 -3 4 -17 0 -31 -7 -15 -8 -30 -12 -35 -9 -4
3 -8 0 -8 -6 0 -7 -6 -10 -12 -8 -7 3 -19 -2 -27 -9 -7 -8 -20 -12 -27 -9 -8
3 -14 2 -14 -3 0 -7 -38 -19 -65 -21 -3 0 -21 -9 -41 -20 -19 -11 -39 -18 -45
-15 -5 4 -9 3 -9 -2 0 -8 -62 -33 -87 -35 -7 -1 -13 -5 -13 -10 0 -4 -3 -7 -7
-6 -5 1 -21 -4 -38 -11 -16 -7 -37 -14 -47 -16 -9 -2 -30 -11 -47 -19 -17 -9
-31 -14 -31 -10 0 3 -11 -1 -25 -10 -14 -9 -30 -14 -35 -11 -6 3 -10 2 -10 -2
0 -7 -60 -28 -92 -33 -4 0 -28 -9 -53 -20 -25 -11 -45 -17 -45 -13 0 3 -6 1
-13 -5 -7 -6 -24 -13 -38 -15 -13 -3 -41 -12 -62 -20 -20 -9 -37 -14 -37 -12
0 2 -16 -3 -35 -11 -19 -8 -35 -11 -35 -8 0 4 -7 1 -15 -6 -8 -6 -19 -9 -25
-5 -5 3 -10 2 -10 -4 0 -5 -8 -9 -17 -9 -21 1 -46 -5 -53 -12 -5 -6 -122 -39
-155 -45 -11 -2 -22 -4 -25 -6 -3 -1 -9 -3 -15 -4 -5 -2 -12 -4 -15 -5 -13 -5
-47 -12 -62 -13 -10 -1 -18 -4 -18 -7 0 -4 -6 -7 -12 -8 -7 0 -26 -4 -43 -7
-16 -4 -37 -8 -45 -10 -8 -2 -15 -4 -15 -5 0 -1 -7 -3 -15 -5 -8 -2 -25 -6
-37 -9 -38 -10 -66 -16 -97 -22 -16 -2 -32 -7 -36 -9 -8 -5 -58 -16 -85 -19
-11 -1 -26 -5 -32 -9 -7 -5 -17 -6 -22 -2 -5 3 -13 0 -16 -6 -4 -5 -13 -8 -20
-5 -7 2 -16 2 -20 -2 -4 -4 -15 -8 -26 -8 -10 -1 -20 -2 -21 -4 -5 -3 -41 -11
-68 -15 -14 -1 -25 -4 -25 -5 0 -2 -9 -4 -20 -6 -11 -1 -31 -6 -45 -9 -25 -7
-55 -12 -100 -20 -31 -5 -65 -13 -65 -15 0 -4 -100 -22 -122 -22 -13 0 -23 -4
-23 -8 0 -5 -8 -9 -17 -9 -22 -1 -78 -9 -78 -11 0 -1 -7 -3 -15 -5 -8 -2 -28
-6 -45 -10 -16 -3 -39 -8 -50 -9 -11 -1 -29 -5 -40 -9 -11 -4 -34 -9 -50 -11
-17 -3 -46 -8 -65 -12 -19 -4 -43 -7 -52 -8 -10 0 -18 -4 -18 -9 0 -5 -9 -7
-20 -4 -11 3 -22 1 -25 -3 -3 -5 -13 -9 -23 -8 -9 0 -28 -3 -42 -7 -14 -3 -38
-9 -55 -12 -45 -8 -60 -11 -60 -13 0 -2 -37 -10 -65 -14 -14 -2 -38 -7 -55
-11 -16 -5 -41 -9 -55 -11 -14 -1 -25 -3 -25 -4 0 -3 -69 -15 -150 -25 -16 -2
-30 -4 -30 -5 0 -1 -13 -4 -30 -5 -16 -2 -46 -6 -65 -10 -19 -4 -53 -9 -75
-11 -22 -2 -60 -6 -85 -10 -25 -3 -61 -7 -80 -9 -19 -2 -60 -7 -90 -10 -86
-10 -141 -15 -315 -30 -64 -6 -296 -22 -430 -30 -83 -6 -198 -13 -315 -20
-360 -23 -457 -26 -810 -29 -219 -2 -350 0 -357 6 -7 6 -13 7 -13 3 0 -5 -8 0
-19 9 -16 15 -18 28 -14 109 12 251 2 461 -32 707 -4 25 -8 59 -10 75 -2 17
-7 46 -10 65 -3 19 -8 48 -11 64 -2 16 -9 46 -14 67 -6 22 -8 44 -5 49 3 6 2
10 -3 10 -5 0 -10 11 -11 25 -4 57 -6 65 -14 65 -4 0 -7 8 -6 18 1 9 0 19 -1
22 -1 3 -3 12 -5 20 -8 31 -15 61 -21 83 -3 12 -7 29 -9 37 -1 8 -5 23 -9 32
-4 9 -9 25 -11 35 -2 10 -4 19 -5 21 -2 1 -3 5 -4 10 -2 4 -8 25 -14 47 -6 22
-10 43 -9 46 1 3 -4 13 -11 22 -8 9 -11 21 -7 27 3 5 2 10 -3 10 -9 0 -26 55
-23 73 0 4 -4 7 -10 7 -6 0 -9 6 -6 14 3 8 1 16 -4 18 -5 2 -11 13 -12 26 0
12 -5 22 -10 22 -5 0 -7 6 -4 14 3 8 1 16 -4 18 -6 2 -11 10 -12 18 -2 8 -6
21 -10 28 -5 6 -5 12 0 12 4 0 2 4 -5 8 -7 5 -14 17 -16 28 -2 11 -13 35 -23
54 -11 19 -18 41 -15 49 3 8 0 11 -7 7 -9 -6 -13 5 -10 30 0 4 -4 10 -9 13 -6
3 -12 13 -14 21 -2 8 -9 21 -16 28 -7 8 -10 18 -7 23 4 5 1 9 -6 9 -7 0 -10 3
-6 6 3 3 -3 15 -13 26 -10 11 -16 27 -13 36 4 10 2 13 -5 8 -11 -6 -17 5 -13
27 0 4 -4 7 -9 7 -6 0 -10 7 -10 15 0 8 -5 15 -12 15 -6 0 -9 3 -5 6 3 4 -1
13 -9 21 -8 8 -12 18 -9 23 3 4 -2 11 -11 14 -8 3 -12 10 -9 16 3 5 2 10 -2
10 -5 0 -14 9 -21 21 -11 17 -11 20 0 13 7 -4 0 5 -15 19 -15 15 -26 31 -23
36 3 5 -1 12 -10 15 -8 3 -13 10 -10 15 3 5 -1 12 -10 15 -9 4 -14 9 -11 12 3
4 -4 15 -16 26 -12 11 -15 17 -7 13 8 -3 5 2 -7 11 -13 9 -23 23 -23 30 0 8
-4 14 -10 14 -5 0 -10 5 -10 10 0 6 -9 20 -20 32 -11 12 -20 28 -20 35 0 8 -4
12 -9 9 -9 -6 -26 22 -22 37 1 5 -3 5 -9 2 -7 -4 -14 2 -17 14 -3 12 -9 21
-14 21 -5 0 -9 7 -9 16 0 8 -4 12 -10 9 -5 -3 -10 1 -10 9 0 9 -5 16 -11 16
-5 0 -7 5 -4 10 4 6 1 9 -5 8 -7 -2 -17 5 -23 16 -15 23 -74 88 -154 171 -34
35 -60 66 -57 69 2 3 1 4 -3 1 -10 -8 -33 16 -26 29 3 6 3 8 -1 4 -5 -4 -30
15 -57 42 -27 27 -49 46 -49 43 0 -3 -18 12 -40 35 -21 23 -42 42 -46 42 -6 0
-24 15 -96 85 -18 17 -28 23 -24 15 4 -8 -5 -1 -20 15 -15 17 -29 29 -31 27
-3 -2 -20 10 -54 41 -10 9 -19 15 -19 12 0 -6 -33 21 -63 50 -11 12 -17 14
-13 5 4 -8 -1 -5 -12 7 -11 12 -22 19 -26 16 -3 -3 -8 2 -12 11 -3 9 -10 13
-15 10 -5 -3 -9 0 -9 5 0 6 -6 11 -14 11 -8 0 -17 7 -20 16 -3 8 -10 12 -16 9
-5 -3 -10 -2 -10 3 0 5 -8 12 -17 16 -36 13 -93 53 -86 60 5 4 4 7 -2 5 -16
-4 -65 20 -65 31 0 6 -4 9 -9 5 -5 -3 -17 2 -25 11 -9 8 -16 12 -16 7 0 -4 -5
0 -11 10 -6 9 -14 15 -20 12 -5 -4 -9 -1 -9 5 0 6 -4 9 -10 5 -5 -3 -18 3 -29
14 -11 11 -22 17 -25 14 -3 -4 -6 -1 -6 6 0 7 -4 10 -9 6 -5 -3 -17 3 -27 12
-10 10 -20 17 -23 16 -11 -5 -41 9 -41 18 0 6 -4 7 -10 4 -5 -3 -10 -1 -10 4
0 6 -9 11 -20 11 -11 0 -20 5 -20 11 0 5 -4 7 -10 4 -5 -3 -10 -1 -10 6 0 7
-3 9 -7 6 -3 -4 -12 -2 -20 4 -7 6 -13 8 -13 4 0 -4 -12 0 -26 10 -14 9 -33
18 -42 21 -45 10 -92 30 -92 37 0 5 -4 6 -9 2 -5 -3 -12 -1 -16 5 -4 6 -11 8
-16 5 -5 -4 -9 -1 -9 5 0 6 -5 8 -10 5 -6 -4 -17 -1 -25 5 -8 7 -15 9 -15 5 0
-4 -7 -2 -15 5 -8 7 -15 9 -15 6 0 -4 -9 -2 -21 4 -21 12 -39 17 -94 27 -16 3
-32 8 -35 11 -5 7 -9 8 -53 16 -12 3 -23 5 -24 7 -2 1 -12 3 -23 4 -11 1 -23
4 -27 5 -5 1 -12 3 -18 5 -5 1 -12 3 -15 4 -7 4 -52 11 -70 12 -8 0 -22 3 -30
6 -8 3 -24 7 -35 9 -30 4 -85 12 -130 19 -76 12 -183 22 -310 30 -109 7 -405
12 -410 7z"/>
<path d="M17919 9703 c-13 -16 -12 -17 4 -4 9 7 17 15 17 17 0 8 -8 3 -21 -13z"/>
<path d="M12540 4316 c0 -2 8 -10 18 -17 15 -13 16 -12 3 4 -13 16 -21 21 -21
13z"/>
</g>
</svg>
